# xmcd
#
# Track frame offsets:
#   150
#   14150
#   28800
#   44450
#   57800
#   73000
#   86325
#   101300
#   115275
#   130175
#   143600
#   158550
#   173450
#   188650
#   202475
#   216450
#   231250
#   246600
#   261875
#   276475
#
# Disc length: 3866 seconds
#
# Revision: 0
# Processed by: cddbd v1.5.1PL2 Copyright (c) Steve Scherf et al.
# Submitted via: GXTranscoder 2.0.1939
#
DISCID=2e0f1814
DTITLE=Louis Armstrong - Lazy River
DYEAR=1992
DGENRE=Blues
TTITLE0=Mahogany Hall Stomp
TTITLE1=St Louis Blues
TTITLE2=I'm Confessin'
TTITLE3=Dinah
TTITLE4=Chinatown, My Chinatown
TTITLE5=Georgia On My Mind
TTITLE6=Lazy River
TTITLE7=Wild Man Blues
TTITLE8=Rockin' Chair
TTITLE9=You're Lucky To Me
TTITLE10=You Rascal You
TTITLE11=St James Infirmary
TTITLE12=West End Blues
TTITLE13=Red Nose
TTITLE14=Shoe Shine Boy
TTITLE15=Save It Pretty Mama
TTITLE16=Hear Me Talking To Ya
TTITLE17=I Double DareYou
TTITLE18=Struttin' With Some Barbecue
TTITLE19=I Hope Gabriel Likes My Music
EXTD=
EXTT0=
EXTT1=
EXTT2=
EXTT3=
EXTT4=
EXTT5=
EXTT6=
EXTT7=
EXTT8=
EXTT9=
EXTT10=
EXTT11=
EXTT12=
EXTT13=
EXTT14=
EXTT15=
EXTT16=
EXTT17=
EXTT18=
EXTT19=
PLAYORDER=
